<?xml version="1.0" encoding="UTF-8" standalone="no"?>
<svg
   xmlns:dc="http://purl.org/dc/elements/1.1/"
   xmlns:cc="http://creativecommons.org/ns#"
   xmlns:rdf="http://www.w3.org/1999/02/22-rdf-syntax-ns#"
   xmlns:svg="http://www.w3.org/2000/svg"
   xmlns="http://www.w3.org/2000/svg"
   xmlns:sodipodi="http://sodipodi.sourceforge.net/DTD/sodipodi-0.dtd"
   xmlns:inkscape="http://www.inkscape.org/namespaces/inkscape"
   viewBox="0 0 21.159721 39.999998"
   version="1.1"
   id="svg2"
   inkscape:version="0.48.4 r9939"
   sodipodi:docname="chiron.svg">
  <metadata
     id="metadata12">
    <rdf:RDF>
      <cc:Work
         rdf:about="">
        <dc:format>image/svg+xml</dc:format>
        <dc:type
           rdf:resource="http://purl.org/dc/dcmitype/StillImage" />
      </cc:Work>
    </rdf:RDF>
  </metadata>
  <defs
     id="defs10" />
  <sodipodi:namedview
     pagecolor="#ffffff"
     bordercolor="#666666"
     borderopacity="1"
     objecttolerance="10"
     gridtolerance="10"
     guidetolerance="10"
     inkscape:pageopacity="0"
     inkscape:pageshadow="2"
     inkscape:window-width="809"
     inkscape:window-height="480"
     id="namedview8"
     showgrid="false"
     fit-margin-top="0"
     fit-margin-left="0"
     fit-margin-right="0"
     fit-margin-bottom="0"
     inkscape:zoom="0.1138035"
     inkscape:cx="545.50646"
     inkscape:cy="1029.6112"
     inkscape:window-x="0"
     inkscape:window-y="0"
     inkscape:window-maximized="0"
     inkscape:current-layer="svg2" />
  <g
     id="#ffffffff"
     transform="matrix(0.02426906,0,0,0.02426906,-0.09938562,-0.1213453)" />
  <g
     id="#000000ff"
     transform="matrix(0.02426906,0,0,0.02426906,-0.09938562,-0.1213453)">
    <path
       d="m 374.85,5 c 43.77,0 87.53,0 131.3,0 0,117.68 -0.01,235.36 0.01,353.05 27.21,-27.42 54.63,-54.63 81.79,-82.11 28.6,-28.4 56.78,-57.21 85.36,-85.64 12.78,-12.55 25.06,-25.59 37.84,-38.16 14.61,-14.75 29.52,-29.21 43.91,-44.18 29.52,29.47 58.99,59 88.5,88.47 1.12,1.5 3.44,2.51 3.67,4.44 -103.88,103.9 -207.77,207.81 -311.69,311.67 -0.64,0.77 -2.39,1.94 -1.05,2.97 69.11,69.55 138.08,139.24 207.37,208.63 15.45,16.22 31.73,31.66 47.23,47.84 19.61,19.51 39.04,39.2 58.54,58.82 -27.6,27.67 -54.91,55.64 -82.56,83.26 -3.08,3.43 -6.49,6.54 -9.46,10.05 -5.28,-3.87 -9.37,-9.13 -14.17,-13.56 -14.7,-14.96 -29.57,-29.76 -44.4,-44.59 -17.22,-17.12 -34.14,-34.52 -51.39,-51.61 -22.42,-22.25 -44.39,-44.94 -66.84,-67.15 -17.06,-16.95 -33.76,-34.25 -50.87,-51.14 -7.29,-7.1 -14.19,-14.61 -21.75,-21.43 -0.06,188.63 -0.09,377.26 0.01,565.88 46.08,2.7 91.98,9.31 136.85,20.24 44.69,11.11 88.38,27.06 128.6,49.64 16.33,9.21 32.17,19.4 46.74,31.24 16.18,13.12 30.97,28.34 41.65,46.35 11.23,18.68 17.17,40.72 15.72,62.54 -1.03,18.6 -6.87,36.85 -16.51,52.77 -11.9,20.05 -28.88,36.56 -47.27,50.66 -28.6,21.51 -60.76,37.83 -93.78,51.37 -43.09,17.51 -88.35,29.37 -134.2,36.91 -50.55,8.26 -101.82,11.35 -153,10.92 -46.57,-0.51 -93.18,-3.94 -139.13,-11.73 -47.47,-8.05 -94.27,-20.78 -138.6,-39.67 C 117.1,1586.11 81.75,1567.2 52.21,1540.81 36.64,1526.68 23,1510.02 14.23,1490.79 6.17,1472.8 2.52,1452.67 4.73,1433.03 c 2.01,-20.52 10.65,-39.98 22.84,-56.46 12.28,-16.57 27.69,-30.58 44.23,-42.79 30.01,-21.81 63.39,-38.71 97.96,-52 45.44,-17.4 93.15,-28.32 141.29,-34.99 21.16,-2.83 42.41,-5.2 63.74,-6.27 C 374.93,828.68 374.81,416.84 374.85,5 m 48.52,1318.42 c -35.35,0.81 -70.71,3.13 -105.7,8.4 -42.8,6.37 -85.17,16.88 -125.11,33.72 -18.53,7.74 -36.28,17.23 -53.49,27.56 -13.91,8.64 -27.86,17.81 -38.87,30.09 -5.45,6.31 -10.57,14.08 -9.87,22.8 0.71,8.12 5.2,15.3 10.28,21.44 6.53,7.48 14.09,14 22.12,19.82 14.8,10.68 30.71,19.73 46.93,28.07 40.19,19.78 83.63,32.23 127.61,40.12 49.4,8.74 99.63,11.85 149.74,11.54 59.18,-0.31 118.63,-5.65 176.15,-20.11 41.11,-10.45 81.25,-25.78 117.28,-48.37 15.44,-9.73 31.03,-20.24 42.07,-35.05 4.65,-6.4 8.22,-14.35 7.04,-22.41 -1.5,-8 -6.64,-14.7 -12.1,-20.49 -8.84,-9.03 -19.19,-16.41 -29.76,-23.26 -14.68,-9.38 -30.01,-17.72 -45.69,-25.29 -42.67,-20.09 -88.66,-32.35 -135.14,-39.62 -47.44,-7.36 -95.52,-9.68 -143.49,-8.96 z"
       id="path6"
       inkscape:connector-curvature="0"
       style="fill:#000000" />
  </g>
</svg>
